<?xml version="1.0" encoding="utf-8"?>
<!-- Generator: Adobe Illustrator 19.1.0, SVG Export Plug-In . SVG Version: 6.00 Build 0)  -->
<svg version="1.1" id="Layer_1" xmlns="http://www.w3.org/2000/svg" xmlns:xlink="http://www.w3.org/1999/xlink" x="0px" y="0px"
	 viewBox="0 0 150 100" enable-background="new 0 0 150 100" xml:space="preserve">
<g>
	<path fill="#010101" d="M63.2,65.7c3.6,1.6,7.6,2.6,11.8,2.6c4.3,0,8.2-0.9,11.8-2.6c-3.8-2.6-8-5.9-11.8-9.4
		C71.1,59.8,67,63.1,63.2,65.7z M99.4,54.4c2.5-4.3,3.9-9.2,3.9-14.4c0-4.3-1-8.2-2.6-11.8c-4.3,6.2-10.4,13.3-17.3,20.3
		c-1.4,1.4-3.1,2.9-4.6,4.5c-0.7-0.5-1.3-1.1-2-1.7c1.5-1.4,3.2-2.9,4.8-4.6c7.4-7.4,13.7-14.9,17.9-21.4c4.7-7.2,5.9-11.7,3.8-13.7
		c-0.7-0.7-1.5-1-2.7-1c-2.5,0-6.4,1.9-11.3,5c-4.3-2.5-9.2-3.9-14.4-3.9s-10.2,1.4-14.4,3.9c-4.8-3.2-8.8-5-11.3-5
		c-1.1,0-2.1,0.3-2.7,1c-4.9,4.9,10.4,23.6,21.7,35.1c13.4,13.4,26.7,22.7,32.4,22.7c1.1,0,2.1-0.3,2.7-1c2.1-2.1,0.9-6.6-3.8-13.7
		C99.5,54.5,99.4,54.5,99.4,54.4z M100.7,13.2c0.2,0,0.7,0,0.9,0.2c0.5,0.5,0.4,3.3-3.7,9.8c-1.7-2.3-3.7-4.4-6.1-6.1
		C95.8,14.5,99,13.2,100.7,13.2z M52.1,23.2c-3.5-5.4-4.6-8.9-3.7-9.8c0.2-0.2,0.7-0.2,0.9-0.2c1.7,0,4.9,1.3,8.9,3.9
		C55.9,18.9,53.8,20.9,52.1,23.2z M101.6,66.5c-0.2,0.2-0.7,0.2-0.9,0.2c-1.7,0-4.9-1.3-8.9-3.9c2.3-1.7,4.4-3.7,6.1-6.1
		C101.9,63.2,102.1,65.9,101.6,66.5z M71.7,53.4c-1.9-1.6-3.6-3.4-5.2-5C59.8,41.7,53.4,34.2,49.1,28c-1.6,3.6-2.6,7.6-2.6,11.9
		c0,5.2,1.4,10.2,3.9,14.4c0,0.1-0.1,0.1-0.1,0.2c-4.6,7.3-5.9,11.8-3.7,13.8c0.7,0.7,1.5,1,2.7,1c4.5,0,13.6-5.8,23.8-14.6
		C72.6,54.3,72.1,53.8,71.7,53.4z M49.3,66.7c-0.2,0-0.7,0-0.9-0.2c-0.5-0.5-0.4-3.3,3.7-9.8c1.7,2.3,3.7,4.4,6.1,6.1
		C54.2,65.4,51,66.7,49.3,66.7z"/>
	<g>
		<path fill="#010101" d="M19.7,79l2.8,6.1L22.4,79h2.1v9h-2.7L19,82l0.1,6.1H17v-9H19.7z"/>
		<path fill="#010101" d="M30.1,88.1v-1c-0.4,0.8-1.1,1.2-2,1.2c-1.3,0-2-0.9-2-2.4v-4.5h2.1v4.1c0,0.4,0.1,0.8,0.5,0.8
			c0.5,0,1.2-0.7,1.2-2.3v-2.7H32v6.8H30.1z"/>
		<path fill="#010101" d="M38.8,87.1c-0.7,0.8-1.5,1.1-2.5,1.1c-1,0-1.6-0.3-2.1-0.8c-0.7-0.7-0.9-1.5-0.9-2.6s0.2-2.1,0.9-2.8
			c0.4-0.4,1.2-0.8,2.2-0.8c0.9,0,1.6,0.2,2.2,0.8l-1.2,1.4c-0.3-0.2-0.7-0.3-1-0.3c-0.9,0-1,0.5-1,1.6s0.1,1.7,0.9,1.7
			c0.4,0,0.9-0.2,1.2-0.7L38.8,87.1z"/>
		<path fill="#010101" d="M42,78v10h-2.1V78H42z"/>
		<path fill="#010101" d="M49.3,87.1c-0.8,0.8-1.6,1.1-2.8,1.1c-1,0-1.6-0.2-2.2-0.7c-0.5-0.5-0.9-1.3-0.9-2.6
			c0-1.1,0.2-2.1,0.9-2.8c0.4-0.4,1.2-0.9,2.3-0.9c2.2,0,2.8,1.4,2.8,3.3c0,0.2,0,0.4,0,0.8h-3.9c0,0.9,0.2,1.4,1.1,1.4
			c0.7,0,1.3-0.2,1.7-0.7L49.3,87.1z M47.4,83.9c0-0.8-0.1-1.2-1-1.2c-0.9,0-1,0.4-1.1,1.2H47.4z"/>
		<path fill="#010101" d="M55.8,87.5c-0.5,0.5-1.2,0.8-2.3,0.8c-1,0-1.6-0.2-2.2-0.8c-0.7-0.7-0.9-1.4-0.9-2.7s0.2-2.2,0.9-2.8
			c0.5-0.5,1.3-0.8,2.3-0.8s1.6,0.2,2.2,0.8c0.7,0.7,0.9,1.4,0.9,2.7S56.5,86.8,55.8,87.5z M54.3,83.2c-0.1-0.1-0.3-0.2-0.7-0.2
			c-0.3,0-0.7,0.1-0.8,0.2c-0.2,0.3-0.3,0.9-0.3,1.6c0,0.8,0.1,1.3,0.3,1.5c0.1,0.1,0.3,0.2,0.7,0.2c0.3,0,0.5-0.1,0.7-0.3
			c0.2-0.3,0.3-0.9,0.3-1.6C54.6,83.9,54.5,83.4,54.3,83.2z"/>
		<path fill="#010101" d="M60,85.1V84h3.8v1.1H60z"/>
		<path fill="#010101" d="M69.3,79v9h-1.2v-9H69.3z"/>
		<path fill="#010101" d="M76.1,87.1c-0.5,0.8-1.4,1.1-2.4,1.1c-0.9,0-1.4-0.3-1.9-0.8c-0.5-0.7-0.7-1.4-0.7-2.5
			c0-1,0.2-2.1,0.8-2.7c0.4-0.4,1.1-0.8,2.1-0.8c0.8,0,1.5,0.2,2.1,0.8l-0.7,0.8c-0.4-0.3-0.9-0.5-1.4-0.5c-1.3,0-1.5,0.8-1.5,2.4
			c0,1.5,0.3,2.4,1.4,2.4c0.7,0,1.2-0.3,1.6-0.8L76.1,87.1z"/>
		<path fill="#010101" d="M82.1,87.3c-0.5,0.5-1.1,0.9-2.2,0.9c-1,0-1.6-0.3-2.1-0.8C77.3,86.8,77,86,77,84.9c0-1.2,0.2-2.1,0.8-2.7
			c0.5-0.5,1.2-0.9,2.2-0.9c1,0,1.6,0.3,2.1,0.8c0.5,0.7,0.8,1.4,0.8,2.5C82.8,85.9,82.7,86.6,82.1,87.3z M81.2,82.8
			c-0.2-0.2-0.5-0.4-1.2-0.4c-0.7,0-1,0.2-1.2,0.4c-0.3,0.4-0.4,1.2-0.4,2.1c0,1,0.1,1.5,0.4,2c0.2,0.2,0.5,0.4,1.1,0.4
			c0.7,0,1-0.2,1.2-0.4c0.3-0.4,0.4-1.2,0.4-2C81.6,83.9,81.5,83.2,81.2,82.8z"/>
		<path fill="#010101" d="M85.9,81.5v1.3c0.3-0.9,1.1-1.5,2.2-1.5c1.2,0,2,0.9,2,2.2v4.6h-1.2v-4.3c0-0.9-0.2-1.4-1-1.4
			c-1,0-1.9,1-1.9,3.3v2.4h-1.2v-6.5H85.9z"/>
		<path fill="#010101" d="M96,79v8h3.8v1.1h-5v-9H96z"/>
		<path fill="#010101" d="M101.8,78.6c0.4,0,0.8,0.3,0.8,0.8c0,0.4-0.3,0.8-0.8,0.8c-0.4,0-0.8-0.3-0.8-0.8S101.4,78.6,101.8,78.6z
			 M102.4,81.5v6.5h-1.2v-6.5H102.4z"/>
		<path fill="#010101" d="M105.7,78v4.6c0.4-0.8,1.2-1.2,2.1-1.2c1.9,0,2.3,1.6,2.3,3.3c0,1.7-0.4,3.5-2.5,3.5c-0.8,0-1.4-0.2-2-1
			v0.9h-1.1V78H105.7z M107.6,82.4c-0.4,0-0.9,0.2-1.2,0.5c-0.4,0.4-0.7,1.2-0.7,2s0.2,1.3,0.5,1.7c0.3,0.3,0.7,0.4,1.2,0.4
			c1.2,0,1.5-1.1,1.5-2.4C108.9,83.6,108.7,82.4,107.6,82.4z"/>
		<path fill="#010101" d="M113,81.5v1.3c0.3-1,1.1-1.4,1.9-1.4c0.3,0,0.5,0.1,0.8,0.2l-0.3,1.1c-0.1-0.1-0.3-0.1-0.5-0.1
			c-1.1,0-1.6,1.4-1.6,3.1v2.4h-1.2v-6.5H113z"/>
		<path fill="#010101" d="M116.4,82.3c0.7-0.7,1.4-0.9,2.4-0.9c1.6,0,2.5,0.7,2.5,2.4v4.3h-1.1V87c-0.4,0.9-1.2,1.2-2.1,1.2
			c-0.7,0-1.1-0.2-1.4-0.5c-0.3-0.3-0.5-0.8-0.5-1.4c0-0.8,0.2-1.2,0.8-1.5c0.5-0.4,1.3-0.5,2.3-0.5h1v-0.3c0-1.1-0.3-1.5-1.3-1.5
			c-0.8,0-1.2,0.2-1.6,0.7L116.4,82.3z M119,85.1c-1.1,0-1.6,0.2-1.6,1.2c0,0.7,0.2,1,0.9,1c0.9,0,1.9-0.7,1.9-2.2H119z"/>
		<path fill="#010101" d="M124.5,81.5v1.3c0.3-1,1.1-1.4,1.9-1.4c0.3,0,0.5,0.1,0.8,0.2l-0.3,1.1c-0.1-0.1-0.3-0.1-0.5-0.1
			c-1.1,0-1.6,1.4-1.6,3.1v2.4h-1.2v-6.5H124.5z"/>
		<path fill="#010101" d="M131.6,87.7c-0.7,2.2-1.4,3.5-2.9,3.5c-0.3,0-0.8-0.1-1-0.2l0.4-1c0.2,0.1,0.3,0.1,0.5,0.1
			c0.8,0,1.2-0.7,1.6-2.1h-0.7l-2.2-6.4h1.3l1.9,5.9l1.6-5.9h1.2L131.6,87.7z"/>
	</g>
</g>
</svg>
